<svg width="83" height="83" viewBox="0 0 83 83" fill="none" xmlns="http://www.w3.org/2000/svg">
<rect width="82.7586" height="82.7586" fill="white"/>
<path d="M41.3485 21.5162C45.0552 21.5162 48.9471 25.0992 46.6612 31.5242L45.92 33.6246L50.368 27.1379C50.368 22.1341 46.3523 18.1184 41.3485 18.1184C36.3447 18.1184 32.329 22.1341 32.329 27.1379L36.777 33.6246L36.0358 31.5242C33.7499 25.0992 37.6421 21.5162 41.3485 21.5162Z" fill="black"/>
<path d="M41.3501 31.0321C35.6625 31.0321 31.03 35.7234 31.03 41.4061C31.03 47.0888 35.6625 51.7262 41.3501 51.7262C47.0377 51.7262 51.729 47.0937 51.729 41.4061C51.729 35.7185 47.0328 31.0321 41.3501 31.0321ZM41.3501 48.3255C37.5173 48.3255 34.4307 45.2389 34.4307 41.4061C34.4307 37.5733 37.5173 34.4279 41.3501 34.4279C45.1829 34.4279 48.3283 37.5785 48.3283 41.4061C48.3283 45.2337 45.1777 48.3255 41.3501 48.3255Z" fill="black"/>
<path d="M24.1618 31.4749C26.0151 28.2648 31.0643 26.6859 35.4855 31.8778L36.9338 33.5701L33.5402 26.4746C29.2065 23.9726 23.7213 25.4424 21.2193 29.7761C18.7172 34.1099 20.187 39.595 24.5207 42.0971L32.3623 41.4884L30.1728 41.0802C23.4656 39.8474 22.3086 34.6852 24.1622 31.4752L24.1618 31.4749Z" fill="black"/>
<path d="M24.1932 51.338C22.34 48.1279 23.497 42.9657 30.2038 41.733L32.3933 41.3248L24.5518 40.7161C20.2187 43.2182 18.7489 48.7033 21.2506 53.037C23.7527 57.3708 29.2378 58.8403 33.5716 56.3385L36.9651 49.2431L35.5169 50.9353C31.0956 56.1272 26.0467 54.5483 24.1932 51.3383V51.338Z" fill="black"/>
<path d="M41.4109 61.2424C37.7041 61.2424 33.8122 57.6594 36.0981 51.2344L36.8394 49.134L32.3914 55.6208C32.3914 60.6249 36.4071 64.6402 41.4109 64.6402C46.415 64.6402 50.4303 60.6246 50.4303 55.6208L45.9823 49.134L46.7236 51.2344C49.0095 57.6594 45.1173 61.2424 41.4109 61.2424Z" fill="black"/>
<path d="M58.5972 51.2838C56.744 54.4938 51.6948 56.0727 47.2735 50.8808L45.8253 49.1886L49.2188 56.284C53.5525 58.7861 59.0377 57.3162 61.5398 52.9825C64.0419 48.6488 62.572 43.1636 58.2383 40.6616L50.3967 41.2702L52.5863 41.6784C59.2934 42.9112 60.4504 48.0734 58.5969 51.2834L58.5972 51.2838Z" fill="black"/>
<path d="M58.5662 31.4207C60.4194 34.6307 59.2624 39.7929 52.5556 41.0257L50.366 41.4339L58.2076 42.0426C62.5413 39.5405 64.0108 34.0553 61.5091 29.7216C59.0073 25.3879 53.5219 23.9184 49.1881 26.4201L45.7946 33.5155L47.2428 31.8233C51.6641 26.6314 56.713 28.2103 58.5665 31.4203L58.5662 31.4207Z" fill="black"/>
</svg>
