<?xml version="1.0" encoding="utf-8"?>
<svg version="1.2" baseProfile="tiny-ps" id="Layer_1" xmlns="http://www.w3.org/2000/svg" xmlns:xlink="http://www.w3.org/1999/xlink"
     viewBox="0 0 83 83" overflow="visible" xml:space="preserve">
<title>About Contact</title>
<rect fill="#FFFFFF" width="82.8" height="82.8"/>
<path d="M41.3,21.5c3.7,0,7.6,3.6,5.3,10l-0.7,2.1l4.4-6.5c0-5-4-9-9-9s-9,4-9,9l4.4,6.5L36,31.5C33.7,25.1,37.6,21.5,41.3,21.5z"/>
<path d="M41.4,31C35.7,31,31,35.7,31,41.4s4.6,10.3,10.3,10.3s10.4-4.6,10.4-10.3S47,31,41.4,31z M41.4,48.3c-3.8,0-6.9-3.1-6.9-6.9
	s3.1-7,6.9-7s7,3.2,7,7S45.2,48.3,41.4,48.3z"/>
<path d="M24.2,31.5c1.9-3.2,6.9-4.8,11.3,0.4l1.4,1.7l-3.4-7.1c-4.3-2.5-9.8-1-12.3,3.3c-2.5,4.3-1,9.8,3.3,12.3l7.8-0.6l-2.2-0.4
	C23.5,39.8,22.3,34.7,24.2,31.5L24.2,31.5z"/>
<path d="M24.2,51.3c-1.9-3.2-0.7-8.4,6-9.6l2.2-0.4l-7.8-0.6c-4.3,2.5-5.8,8-3.3,12.3c2.5,4.3,8,5.8,12.3,3.3l3.4-7.1l-1.4,1.7
	C31.1,56.1,26,54.5,24.2,51.3L24.2,51.3z"/>
<path d="M41.4,61.2c-3.7,0-7.6-3.6-5.3-10l0.7-2.1l-4.4,6.5c0,5,4,9,9,9c5,0,9-4,9-9L46,49.1l0.7,2.1C49,57.7,45.1,61.2,41.4,61.2z"
	/>
<path d="M58.6,51.3c-1.9,3.2-6.9,4.8-11.3-0.4l-1.4-1.7l3.4,7.1c4.3,2.5,9.8,1,12.3-3.3c2.5-4.3,1-9.8-3.3-12.3l-7.8,0.6l2.2,0.4
	C59.3,42.9,60.5,48.1,58.6,51.3L58.6,51.3z"/>
<path d="M58.6,31.4c1.9,3.2,0.7,8.4-6,9.6l-2.2,0.4l7.8,0.6c4.3-2.5,5.8-8,3.3-12.3c-2.5-4.3-8-5.8-12.3-3.3l-3.4,7.1l1.4-1.7
	C51.7,26.6,56.7,28.2,58.6,31.4L58.6,31.4z"/>
</svg>
