<svg width="83" height="83" viewBox="0 0 83 83" fill="none" xmlns="http://www.w3.org/2000/svg">
<rect width="82.7586" height="82.7586" fill="white"/>
<path d="M13.5794 38.0594H10.9994V36.9794H17.4794V38.0594H14.8394V45.3794H13.5794V38.0594ZM22.6102 39.3794H23.8702L21.5662 45.3794H20.5582L22.6102 39.3794ZM18.0262 39.3794H19.2742L21.3382 45.3794H20.3182L18.0262 39.3794ZM17.5102 46.7594H18.3622C18.8422 46.7594 19.2222 46.6674 19.5022 46.4834C19.7902 46.2994 20.0262 45.9914 20.2102 45.5594L20.4502 44.9954L21.5662 45.3794L21.4822 45.5714C21.1302 46.3714 20.7142 46.9394 20.2342 47.2754C19.7622 47.6114 19.1382 47.7794 18.3622 47.7794H17.9542L17.5102 46.7594ZM25.0291 47.7794V39.3794H26.2291V47.7794H25.0291ZM28.1611 39.2234C28.6731 39.2234 29.1211 39.3554 29.5051 39.6194C29.8971 39.8754 30.1971 40.2434 30.4051 40.7234C30.6211 41.1954 30.7291 41.7474 30.7291 42.3794C30.7291 43.0114 30.6211 43.5674 30.4051 44.0474C30.1971 44.5194 29.8971 44.8874 29.5051 45.1514C29.1211 45.4074 28.6731 45.5354 28.1611 45.5354C27.6811 45.5354 27.2571 45.4114 26.8891 45.1634C26.5291 44.9074 26.2491 44.5474 26.0491 44.0834C25.8491 43.6114 25.7491 43.0674 25.7491 42.4514V42.3074C25.7491 41.6914 25.8491 41.1514 26.0491 40.6874C26.2491 40.2154 26.5291 39.8554 26.8891 39.6074C27.2571 39.3514 27.6811 39.2234 28.1611 39.2234ZM27.8851 40.2434C27.5491 40.2434 27.2571 40.3314 27.0091 40.5074C26.7611 40.6754 26.5691 40.9154 26.4331 41.2274C26.2971 41.5314 26.2291 41.8914 26.2291 42.3074V42.4514C26.2291 42.8674 26.2971 43.2314 26.4331 43.5434C26.5691 43.8474 26.7611 44.0874 27.0091 44.2634C27.2571 44.4314 27.5491 44.5154 27.8851 44.5154C28.2131 44.5154 28.5011 44.4274 28.7491 44.2514C28.9971 44.0754 29.1891 43.8274 29.3251 43.5074C29.4611 43.1794 29.5291 42.8034 29.5291 42.3794C29.5291 41.9554 29.4611 41.5834 29.3251 41.2634C29.1891 40.9354 28.9971 40.6834 28.7491 40.5074C28.5011 40.3314 28.2131 40.2434 27.8851 40.2434ZM34.3839 45.5354C33.7679 45.5354 33.2279 45.4074 32.7639 45.1514C32.3079 44.8874 31.9519 44.5194 31.6959 44.0474C31.4479 43.5674 31.3239 43.0114 31.3239 42.3794C31.3239 41.7474 31.4479 41.1954 31.6959 40.7234C31.9519 40.2434 32.3079 39.8754 32.7639 39.6194C33.2279 39.3554 33.7679 39.2234 34.3839 39.2234C34.9999 39.2234 35.5359 39.3554 35.9919 39.6194C36.4559 39.8754 36.8119 40.2434 37.0599 40.7234C37.3159 41.1954 37.4439 41.7474 37.4439 42.3794C37.4439 43.0114 37.3159 43.5674 37.0599 44.0474C36.8119 44.5194 36.4559 44.8874 35.9919 45.1514C35.5359 45.4074 34.9999 45.5354 34.3839 45.5354ZM34.3839 44.5154C34.7599 44.5154 35.0879 44.4274 35.3679 44.2514C35.6479 44.0754 35.8639 43.8274 36.0159 43.5074C36.1679 43.1874 36.2439 42.8114 36.2439 42.3794C36.2439 41.9474 36.1679 41.5714 36.0159 41.2514C35.8639 40.9314 35.6479 40.6834 35.3679 40.5074C35.0879 40.3314 34.7599 40.2434 34.3839 40.2434C33.8159 40.2434 33.3639 40.4394 33.0279 40.8314C32.6919 41.2154 32.5239 41.7314 32.5239 42.3794C32.5239 43.0274 32.6919 43.5474 33.0279 43.9394C33.3639 44.3234 33.8159 44.5154 34.3839 44.5154ZM42.5388 39.3794H43.7388V45.3794H42.5388V39.3794ZM40.6068 39.2234C41.0868 39.2234 41.5068 39.3514 41.8668 39.6074C42.2348 39.8554 42.5188 40.2154 42.7188 40.6874C42.9188 41.1514 43.0188 41.6914 43.0188 42.3074V42.4514C43.0188 43.0674 42.9188 43.6114 42.7188 44.0834C42.5188 44.5474 42.2348 44.9074 41.8668 45.1634C41.5068 45.4114 41.0868 45.5354 40.6068 45.5354C40.0948 45.5354 39.6428 45.4074 39.2508 45.1514C38.8668 44.8874 38.5668 44.5194 38.3508 44.0474C38.1428 43.5674 38.0388 43.0114 38.0388 42.3794C38.0388 41.7474 38.1428 41.1954 38.3508 40.7234C38.5668 40.2434 38.8668 39.8754 39.2508 39.6194C39.6428 39.3554 40.0948 39.2234 40.6068 39.2234ZM40.8828 40.2434C40.5548 40.2434 40.2668 40.3314 40.0188 40.5074C39.7708 40.6834 39.5788 40.9354 39.4428 41.2634C39.3068 41.5834 39.2388 41.9554 39.2388 42.3794C39.2388 42.8034 39.3068 43.1794 39.4428 43.5074C39.5788 43.8274 39.7708 44.0754 40.0188 44.2514C40.2668 44.4274 40.5548 44.5154 40.8828 44.5154C41.2188 44.5154 41.5108 44.4314 41.7588 44.2634C42.0068 44.0874 42.1988 43.8474 42.3348 43.5434C42.4708 43.2314 42.5388 42.8674 42.5388 42.4514V42.3074C42.5388 41.8914 42.4708 41.5314 42.3348 41.2274C42.1988 40.9154 42.0068 40.6754 41.7588 40.5074C41.5108 40.3314 41.2188 40.2434 40.8828 40.2434ZM40.9668 47.9354H40.8468C40.3588 47.9354 39.9188 47.8434 39.5268 47.6594C39.1428 47.4834 38.8268 47.2274 38.5788 46.8914C38.3388 46.5634 38.1948 46.1794 38.1468 45.7394H39.4068C39.4628 46.0994 39.6188 46.3834 39.8748 46.5914C40.1388 46.8074 40.4628 46.9154 40.8468 46.9154H40.9668H40.9788C41.4508 46.9154 41.8268 46.7754 42.1068 46.4954C42.3948 46.2154 42.5388 45.8434 42.5388 45.3794H43.7388C43.7388 45.8914 43.6228 46.3394 43.3908 46.7234C43.1668 47.1074 42.8468 47.4034 42.4308 47.6114C42.0148 47.8274 41.5308 47.9354 40.9788 47.9354H40.9668ZM45.5336 39.3794H46.7336V45.3794H45.5336V39.3794ZM46.2896 42.4994C46.2896 41.8754 46.3896 41.3274 46.5896 40.8554C46.7896 40.3834 47.0696 40.0194 47.4296 39.7634C47.7976 39.5074 48.2256 39.3794 48.7136 39.3794H48.9416H50.3336L50.5136 40.5194H48.9416H48.4376C47.9176 40.5194 47.5016 40.6994 47.1896 41.0594C46.8856 41.4194 46.7336 41.8994 46.7336 42.4994H46.2896ZM57.0365 44.0354C57.0365 44.3394 57.0525 44.5914 57.0845 44.7914C57.1165 44.9834 57.1725 45.1794 57.2525 45.3794H56.0405C55.9685 45.2034 55.9165 45.0154 55.8845 44.8154C55.8525 44.6074 55.8365 44.3394 55.8365 44.0114V41.2034C55.8365 40.9074 55.7125 40.6754 55.4645 40.5074C55.2245 40.3314 54.8965 40.2434 54.4805 40.2434C54.1205 40.2434 53.8245 40.3154 53.5925 40.4594C53.3605 40.6034 53.2245 40.7914 53.1845 41.0234H51.9245C51.9645 40.6634 52.0965 40.3474 52.3205 40.0754C52.5525 39.8034 52.8525 39.5954 53.2205 39.4514C53.5965 39.2994 54.0165 39.2234 54.4805 39.2234C54.9925 39.2234 55.4405 39.3074 55.8245 39.4754C56.2085 39.6354 56.5045 39.8634 56.7125 40.1594C56.9285 40.4554 57.0365 40.8034 57.0365 41.2034V44.0354ZM53.7365 45.4634C53.1125 45.4634 52.6125 45.2914 52.2365 44.9474C51.8685 44.6034 51.6845 44.1474 51.6845 43.5794C51.6845 43.1074 51.8485 42.7034 52.1765 42.3674C52.5045 42.0314 52.9405 41.8154 53.4845 41.7194L56.2685 41.2274L56.5805 42.2114L53.7725 42.7034C53.5005 42.7434 53.2845 42.8434 53.1245 43.0034C52.9645 43.1634 52.8845 43.3554 52.8845 43.5794C52.8845 43.8434 52.9845 44.0554 53.1845 44.2154C53.3925 44.3674 53.6685 44.4434 54.0125 44.4434C54.5645 44.4434 55.0045 44.2954 55.3325 43.9994C55.6685 43.7034 55.8365 43.3074 55.8365 42.8114L56.4365 42.4514C56.4365 43.0514 56.3245 43.5794 56.1005 44.0354C55.8845 44.4914 55.5725 44.8434 55.1645 45.0914C54.7565 45.3394 54.2805 45.4634 53.7365 45.4634ZM63.7513 44.0354C63.7513 44.3394 63.7673 44.5914 63.7993 44.7914C63.8313 44.9834 63.8873 45.1794 63.9673 45.3794H62.7553C62.6833 45.2034 62.6313 45.0154 62.5993 44.8154C62.5673 44.6074 62.5513 44.3394 62.5513 44.0114V41.2034C62.5513 40.9074 62.4273 40.6754 62.1793 40.5074C61.9393 40.3314 61.6113 40.2434 61.1953 40.2434C60.8353 40.2434 60.5393 40.3154 60.3073 40.4594C60.0753 40.6034 59.9393 40.7914 59.8993 41.0234H58.6393C58.6793 40.6634 58.8113 40.3474 59.0353 40.0754C59.2673 39.8034 59.5673 39.5954 59.9353 39.4514C60.3113 39.2994 60.7313 39.2234 61.1953 39.2234C61.7073 39.2234 62.1553 39.3074 62.5393 39.4754C62.9233 39.6354 63.2193 39.8634 63.4273 40.1594C63.6433 40.4554 63.7513 40.8034 63.7513 41.2034V44.0354ZM60.4513 45.4634C59.8273 45.4634 59.3273 45.2914 58.9513 44.9474C58.5833 44.6034 58.3993 44.1474 58.3993 43.5794C58.3993 43.1074 58.5633 42.7034 58.8913 42.3674C59.2193 42.0314 59.6553 41.8154 60.1993 41.7194L62.9833 41.2274L63.2953 42.2114L60.4873 42.7034C60.2153 42.7434 59.9993 42.8434 59.8393 43.0034C59.6793 43.1634 59.5993 43.3554 59.5993 43.5794C59.5993 43.8434 59.6993 44.0554 59.8993 44.2154C60.1073 44.3674 60.3833 44.4434 60.7273 44.4434C61.2793 44.4434 61.7193 44.2954 62.0473 43.9994C62.3833 43.7034 62.5513 43.3074 62.5513 42.8114L63.1513 42.4514C63.1513 43.0514 63.0393 43.5794 62.8153 44.0354C62.5993 44.4914 62.2873 44.8434 61.8793 45.0914C61.4713 45.3394 60.9953 45.4634 60.4513 45.4634ZM64.8141 39.3794H70.5501V40.3994H64.8141V39.3794ZM66.3501 39.2714C66.3501 38.7434 66.4341 38.3114 66.6021 37.9754C66.7701 37.6394 67.0301 37.3914 67.3821 37.2314C67.7341 37.0634 68.1901 36.9794 68.7501 36.9794H70.6221L71.0421 37.9994H68.7501C68.3021 37.9994 67.9901 38.0954 67.8141 38.2874C67.6381 38.4714 67.5501 38.7994 67.5501 39.2714V45.3794H66.3501V39.2714Z" fill="black"/>
</svg>
